<svg xmlns="http://www.w3.org/2000/svg" xmlns:xlink="http://www.w3.org/1999/xlink" version="1.1" class="marks" width="820" height="346" viewBox="0 0 820 346"><rect width="820" height="346" fill="white"/><g fill="none" stroke-miterlimit="10" transform="translate(260,35)"><g class="mark-group role-frame root" role="graphics-object" aria-roledescription="group mark container"><g transform="translate(0,0)"><path class="background" aria-hidden="true" d="M0.5,0.5h300v260h-300Z" stroke="#ddd"/><g><g class="mark-group role-axis" aria-hidden="true"><g transform="translate(0.5,260.5)"><path class="background" aria-hidden="true" d="M0,0h0v0h0Z" pointer-events="none"/><g><g class="mark-rule role-axis-grid" pointer-events="none"><line transform="translate(20,0)" x2="0" y2="-260" stroke="#ddd" stroke-width="1" opacity="1"/><line transform="translate(70,0)" x2="0" y2="-260" stroke="#ddd" stroke-width="1" opacity="1"/><line transform="translate(120,0)" x2="0" y2="-260" stroke="#ddd" stroke-width="1" opacity="1"/><line transform="translate(170,0)" x2="0" y2="-260" stroke="#ddd" stroke-width="1" opacity="1"/><line transform="translate(220,0)" x2="0" y2="-260" stroke="#ddd" stroke-width="1" opacity="1"/><line transform="translate(270,0)" x2="0" y2="-260" stroke="#ddd" stroke-width="1" opacity="1"/></g></g><path class="foreground" aria-hidden="true" d="" pointer-events="none" display="none"/></g></g><g class="mark-group role-axis" role="graphics-symbol" aria-roledescription="axis" aria-label="X-axis titled 'DBP_scenariorange' for a linear scale with values from −2 to 28"><g transform="translate(0.5,260.5)"><path class="background" aria-hidden="true" d="M0,0h0v0h0Z" pointer-events="none"/><g><g class="mark-rule role-axis-tick" pointer-events="none"><line transform="translate(20,0)" x2="0" y2="5" stroke="#888" stroke-width="1" opacity="1"/><line transform="translate(70,0)" x2="0" y2="5" stroke="#888" stroke-width="1" opacity="1"/><line transform="translate(120,0)" x2="0" y2="5" stroke="#888" stroke-width="1" opacity="1"/><line transform="translate(170,0)" x2="0" y2="5" stroke="#888" stroke-width="1" opacity="1"/><line transform="translate(220,0)" x2="0" y2="5" stroke="#888" stroke-width="1" opacity="1"/><line transform="translate(270,0)" x2="0" y2="5" stroke="#888" stroke-width="1" opacity="1"/></g><g class="mark-text role-axis-label" pointer-events="none"><text text-anchor="middle" transform="translate(20,19)" font-family="sans-serif" font-size="15px" fill="#000" opacity="1">0</text><text text-anchor="middle" transform="translate(70,19)" font-family="sans-serif" font-size="15px" fill="#000" opacity="1">5</text><text text-anchor="middle" transform="translate(120,19)" font-family="sans-serif" font-size="15px" fill="#000" opacity="1">10</text><text text-anchor="middle" transform="translate(170,19)" font-family="sans-serif" font-size="15px" fill="#000" opacity="1">15</text><text text-anchor="middle" transform="translate(219.99999999999997,19)" font-family="sans-serif" font-size="15px" fill="#000" opacity="1">20</text><text text-anchor="middle" transform="translate(270,19)" font-family="sans-serif" font-size="15px" fill="#000" opacity="1">25</text></g><g class="mark-rule role-axis-domain" pointer-events="none"><line transform="translate(0,0)" x2="300" y2="0" stroke="#888" stroke-width="1" opacity="1"/></g><g class="mark-text role-axis-title" pointer-events="none"><text text-anchor="middle" transform="translate(150,42)" font-family="sans-serif" font-size="20px" font-weight="bold" fill="#000" opacity="1">DBP_scenariorange</text></g></g><path class="foreground" aria-hidden="true" d="" pointer-events="none" display="none"/></g></g><g class="mark-group role-axis" role="graphics-symbol" aria-roledescription="axis" aria-label="Y-axis titled 'Author_pmid' for a discrete scale with 13 values: Caiazzo_32889869, Demerdash_12345678, Eskandaros_34981324, Halperin_24899464, Herrera_20587720, ending with Wallenius_32540150"><g transform="translate(0.5,0.5)"><path class="background" aria-hidden="true" d="M0,0h0v0h0Z" pointer-events="none"/><g><g class="mark-rule role-axis-tick" pointer-events="none"><line transform="translate(0,10)" x2="-5" y2="0" stroke="#888" stroke-width="1" opacity="1"/><line transform="translate(0,30)" x2="-5" y2="0" stroke="#888" stroke-width="1" opacity="1"/><line transform="translate(0,50)" x2="-5" y2="0" stroke="#888" stroke-width="1" opacity="1"/><line transform="translate(0,70)" x2="-5" y2="0" stroke="#888" stroke-width="1" opacity="1"/><line transform="translate(0,90)" x2="-5" y2="0" stroke="#888" stroke-width="1" opacity="1"/><line transform="translate(0,110)" x2="-5" y2="0" stroke="#888" stroke-width="1" opacity="1"/><line transform="translate(0,130)" x2="-5" y2="0" stroke="#888" stroke-width="1" opacity="1"/><line transform="translate(0,150)" x2="-5" y2="0" stroke="#888" stroke-width="1" opacity="1"/><line transform="translate(0,170)" x2="-5" y2="0" stroke="#888" stroke-width="1" opacity="1"/><line transform="translate(0,190)" x2="-5" y2="0" stroke="#888" stroke-width="1" opacity="1"/><line transform="translate(0,210)" x2="-5" y2="0" stroke="#888" stroke-width="1" opacity="1"/><line transform="translate(0,230)" x2="-5" y2="0" stroke="#888" stroke-width="1" opacity="1"/><line transform="translate(0,250)" x2="-5" y2="0" stroke="#888" stroke-width="1" opacity="1"/></g><g class="mark-text role-axis-label" pointer-events="none"><text text-anchor="end" transform="translate(-7,14.5)" font-family="sans-serif" font-size="15px" fill="#000" opacity="1">Caiazzo_32889869</text><text text-anchor="end" transform="translate(-7,34.5)" font-family="sans-serif" font-size="15px" fill="#000" opacity="1">Demerdash_12345678</text><text text-anchor="end" transform="translate(-7,54.5)" font-family="sans-serif" font-size="15px" fill="#000" opacity="1">Eskandaros_34981324</text><text text-anchor="end" transform="translate(-7,74.5)" font-family="sans-serif" font-size="15px" fill="#000" opacity="1">Halperin_24899464</text><text text-anchor="end" transform="translate(-7,94.5)" font-family="sans-serif" font-size="15px" fill="#000" opacity="1">Herrera_20587720</text><text text-anchor="end" transform="translate(-7,114.5)" font-family="sans-serif" font-size="15px" fill="#000" opacity="1">Ikramuddin_23736733</text><text text-anchor="end" transform="translate(-7,134.5)" font-family="sans-serif" font-size="15px" fill="#000" opacity="1">Ospanov_33963974_a</text><text text-anchor="end" transform="translate(-7,154.5)" font-family="sans-serif" font-size="15px" fill="#000" opacity="1">Schiavon_29133606</text><text text-anchor="end" transform="translate(-7,174.5)" font-family="sans-serif" font-size="15px" fill="#000" opacity="1">Simonson_31931977</text><text text-anchor="end" transform="translate(-7,194.5)" font-family="sans-serif" font-size="15px" fill="#000" opacity="1">Sullivan_28000425</text><text text-anchor="end" transform="translate(-7,214.5)" font-family="sans-serif" font-size="15px" fill="#000" opacity="1">Søvik_21893621</text><text text-anchor="end" transform="translate(-7,234.5)" font-family="sans-serif" font-size="15px" fill="#000" opacity="1">Tur_23163735_b</text><text text-anchor="end" transform="translate(-7,254.5)" font-family="sans-serif" font-size="15px" fill="#000" opacity="1">Wallenius_32540150</text></g><g class="mark-rule role-axis-domain" pointer-events="none"><line transform="translate(0,0)" x2="0" y2="260" stroke="#888" stroke-width="1" opacity="1"/></g><g class="mark-text role-axis-title" pointer-events="none"><text text-anchor="middle" transform="translate(-165.2919921875,130) rotate(-90) translate(0,-4)" font-family="sans-serif" font-size="20px" font-weight="bold" fill="#000" opacity="1">Author_pmid</text></g></g><path class="foreground" aria-hidden="true" d="" pointer-events="none" display="none"/></g></g><g class="mark-rule role-mark layer_0_marks" role="graphics-object" aria-roledescription="rule mark container"><line aria-label="DBP_scenariorange: 0.331304935767; Author_pmid: Demerdash_12345678; PMID: 12345678; Max_WaldScenario: C12C0; Max_WaldRatio: 0.919540229885; Min_WaldScenario: T12C12; Min_WaldRatio: 0.588235294118" role="graphics-symbol" aria-roledescription="rule mark" transform="translate(23.31304935767411,30)" x2="-3.3130493576741102" y2="0" stroke="black" stroke-width="3"/><line aria-label="DBP_scenariorange: 11.3514492754; Author_pmid: Herrera_20587720; PMID: 20587720; Max_WaldScenario: T12C12; Max_WaldRatio: 12.25; Min_WaldScenario: T12T0; Min_WaldRatio: 0.898550724638" role="graphics-symbol" aria-roledescription="rule mark" transform="translate(133.51449275362344,90)" x2="-113.51449275362344" y2="0" stroke="black" stroke-width="3"/><line aria-label="DBP_scenariorange: 0.701092479675; Author_pmid: Søvik_21893621; PMID: 21893621; Max_WaldScenario: C12C0; Max_WaldRatio: 0.247967479675; Min_WaldScenario: T12C12; Min_WaldRatio: −0.453125" role="graphics-symbol" aria-roledescription="rule mark" transform="translate(27.01092479674798,210)" x2="-7.010924796747979" y2="0" stroke="black" stroke-width="3"/><line aria-label="DBP_scenariorange: 1.73021978022; Author_pmid: Tur_23163735_b; PMID: 23163735; Max_WaldScenario: C12C0; Max_WaldRatio: 1.92307692308; Min_WaldScenario: T12T0; Min_WaldRatio: 0.192857142857" role="graphics-symbol" aria-roledescription="rule mark" transform="translate(37.302197802197774,230)" x2="-17.302197802197774" y2="0" stroke="black" stroke-width="3"/><line aria-label="DBP_scenariorange: 0.817369093231; Author_pmid: Ikramuddin_23736733; PMID: 23736733; Max_WaldScenario: C12C0; Max_WaldRatio: 1.85185185185; Min_WaldScenario: T12C12; Min_WaldRatio: 1.03448275862" role="graphics-symbol" aria-roledescription="rule mark" transform="translate(28.173690932311654,110)" x2="-8.173690932311654" y2="0" stroke="black" stroke-width="3"/><line aria-label="DBP_scenariorange: 1.14423076923; Author_pmid: Halperin_24899464; PMID: 24899464; Max_WaldScenario: C12C0; Max_WaldRatio: 0.875; Min_WaldScenario: T12C12; Min_WaldRatio: −0.269230769231" role="graphics-symbol" aria-roledescription="rule mark" transform="translate(31.442307692307686,70)" x2="-11.442307692307686" y2="0" stroke="black" stroke-width="3"/><line aria-label="DBP_scenariorange: 8.79305555556; Author_pmid: Sullivan_28000425; PMID: 28000425; Max_WaldScenario: T12C12; Max_WaldRatio: 1.32638888889; Min_WaldScenario: C12C0; Min_WaldRatio: −7.46666666667" role="graphics-symbol" aria-roledescription="rule mark" transform="translate(107.93055555555506,190)" x2="-87.93055555555506" y2="0" stroke="black" stroke-width="3"/><line aria-label="DBP_scenariorange: 26.3789473684; Author_pmid: Schiavon_29133606; PMID: 29133606; Max_WaldScenario: T12C12; Max_WaldRatio: 0.378947368421; Min_WaldScenario: C12C0; Min_WaldRatio: −26" role="graphics-symbol" aria-roledescription="rule mark" transform="translate(283.7894736842063,150)" x2="-263.7894736842063" y2="0" stroke="black" stroke-width="3"/><line aria-label="DBP_scenariorange: 0.51690821256; Author_pmid: Simonson_31931977; PMID: 31931977; Max_WaldScenario: C12C0; Max_WaldRatio: 0.777777777778; Min_WaldScenario: T12T0; Min_WaldRatio: 0.260869565217" role="graphics-symbol" aria-roledescription="rule mark" transform="translate(25.16908212560383,170)" x2="-5.169082125603829" y2="0" stroke="black" stroke-width="3"/><line aria-label="DBP_scenariorange: 3.33620689655; Author_pmid: Wallenius_32540150; PMID: 32540150; Max_WaldScenario: T12C12; Max_WaldRatio: 3.08620689655; Min_WaldScenario: C12C0; Min_WaldRatio: −0.25" role="graphics-symbol" aria-roledescription="rule mark" transform="translate(53.36206896551726,250)" x2="-33.36206896551726" y2="0" stroke="black" stroke-width="3"/><line aria-label="DBP_scenariorange: 2.42857142857; Author_pmid: Caiazzo_32889869; PMID: 32889869; Max_WaldScenario: C12C0; Max_WaldRatio: 4.42857142857; Min_WaldScenario: T12C12; Min_WaldRatio: 2" role="graphics-symbol" aria-roledescription="rule mark" transform="translate(44.28571428571474,10)" x2="-24.28571428571474" y2="0" stroke="black" stroke-width="3"/><line aria-label="DBP_scenariorange: 1.81993456415; Author_pmid: Ospanov_33963974_a; PMID: 33963974; Max_WaldScenario: T12C12; Max_WaldRatio: 2.95629820051; Min_WaldScenario: T12T0; Min_WaldRatio: 1.13636363636" role="graphics-symbol" aria-roledescription="rule mark" transform="translate(38.19934564150502,130)" x2="-18.19934564150502" y2="0" stroke="black" stroke-width="3"/><line aria-label="DBP_scenariorange: 0.589642513435; Author_pmid: Eskandaros_34981324; PMID: 34981324; Max_WaldScenario: C12C0; Max_WaldRatio: 1.69377177735; Min_WaldScenario: T12C12; Min_WaldRatio: 1.10412926391" role="graphics-symbol" aria-roledescription="rule mark" transform="translate(25.89642513435353,50)" x2="-5.896425134353532" y2="0" stroke="black" stroke-width="3"/></g><g class="mark-rule role-mark layer_1_marks" role="graphics-symbol" aria-roledescription="rule mark container"><line transform="translate(20,0)" x2="0" y2="260" stroke="green" stroke-width="3" stroke-dasharray="10,10"/><line transform="translate(20,0)" x2="0" y2="260" stroke="green" stroke-width="3" stroke-dasharray="10,10"/><line transform="translate(20,0)" x2="0" y2="260" stroke="green" stroke-width="3" stroke-dasharray="10,10"/><line transform="translate(20,0)" x2="0" y2="260" stroke="green" stroke-width="3" stroke-dasharray="10,10"/><line transform="translate(20,0)" x2="0" y2="260" stroke="green" stroke-width="3" stroke-dasharray="10,10"/><line transform="translate(20,0)" x2="0" y2="260" stroke="green" stroke-width="3" stroke-dasharray="10,10"/><line transform="translate(20,0)" x2="0" y2="260" stroke="green" stroke-width="3" stroke-dasharray="10,10"/><line transform="translate(20,0)" x2="0" y2="260" stroke="green" stroke-width="3" stroke-dasharray="10,10"/><line transform="translate(20,0)" x2="0" y2="260" stroke="green" stroke-width="3" stroke-dasharray="10,10"/><line transform="translate(20,0)" x2="0" y2="260" stroke="green" stroke-width="3" stroke-dasharray="10,10"/><line transform="translate(20,0)" x2="0" y2="260" stroke="green" stroke-width="3" stroke-dasharray="10,10"/><line transform="translate(20,0)" x2="0" y2="260" stroke="green" stroke-width="3" stroke-dasharray="10,10"/><line transform="translate(20,0)" x2="0" y2="260" stroke="green" stroke-width="3" stroke-dasharray="10,10"/></g><g class="mark-symbol role-mark layer_2_marks" role="graphics-object" aria-roledescription="symbol mark container"><path aria-label="DBP_scenariorange: 0.331304935767; Author_pmid: Demerdash_12345678; PMID: 12345678; Max_WaldScenario: C12C0; Max_WaldRatio: 0.919540229885; Min_WaldScenario: T12C12; Min_WaldRatio: 0.588235294118" role="graphics-symbol" aria-roledescription="point" transform="translate(23.31304935767411,30)" d="M4.472,0A4.472,4.472,0,1,1,-4.472,0A4.472,4.472,0,1,1,4.472,0" fill="red" stroke-width="2" opacity="0.7"/><path aria-label="DBP_scenariorange: 11.3514492754; Author_pmid: Herrera_20587720; PMID: 20587720; Max_WaldScenario: T12C12; Max_WaldRatio: 12.25; Min_WaldScenario: T12T0; Min_WaldRatio: 0.898550724638" role="graphics-symbol" aria-roledescription="point" transform="translate(133.51449275362344,90)" d="M4.472,0A4.472,4.472,0,1,1,-4.472,0A4.472,4.472,0,1,1,4.472,0" fill="red" stroke-width="2" opacity="0.7"/><path aria-label="DBP_scenariorange: 0.701092479675; Author_pmid: Søvik_21893621; PMID: 21893621; Max_WaldScenario: C12C0; Max_WaldRatio: 0.247967479675; Min_WaldScenario: T12C12; Min_WaldRatio: −0.453125" role="graphics-symbol" aria-roledescription="point" transform="translate(27.01092479674798,210)" d="M4.472,0A4.472,4.472,0,1,1,-4.472,0A4.472,4.472,0,1,1,4.472,0" fill="red" stroke-width="2" opacity="0.7"/><path aria-label="DBP_scenariorange: 1.73021978022; Author_pmid: Tur_23163735_b; PMID: 23163735; Max_WaldScenario: C12C0; Max_WaldRatio: 1.92307692308; Min_WaldScenario: T12T0; Min_WaldRatio: 0.192857142857" role="graphics-symbol" aria-roledescription="point" transform="translate(37.302197802197774,230)" d="M4.472,0A4.472,4.472,0,1,1,-4.472,0A4.472,4.472,0,1,1,4.472,0" fill="red" stroke-width="2" opacity="0.7"/><path aria-label="DBP_scenariorange: 0.817369093231; Author_pmid: Ikramuddin_23736733; PMID: 23736733; Max_WaldScenario: C12C0; Max_WaldRatio: 1.85185185185; Min_WaldScenario: T12C12; Min_WaldRatio: 1.03448275862" role="graphics-symbol" aria-roledescription="point" transform="translate(28.173690932311654,110)" d="M4.472,0A4.472,4.472,0,1,1,-4.472,0A4.472,4.472,0,1,1,4.472,0" fill="red" stroke-width="2" opacity="0.7"/><path aria-label="DBP_scenariorange: 1.14423076923; Author_pmid: Halperin_24899464; PMID: 24899464; Max_WaldScenario: C12C0; Max_WaldRatio: 0.875; Min_WaldScenario: T12C12; Min_WaldRatio: −0.269230769231" role="graphics-symbol" aria-roledescription="point" transform="translate(31.442307692307686,70)" d="M4.472,0A4.472,4.472,0,1,1,-4.472,0A4.472,4.472,0,1,1,4.472,0" fill="red" stroke-width="2" opacity="0.7"/><path aria-label="DBP_scenariorange: 8.79305555556; Author_pmid: Sullivan_28000425; PMID: 28000425; Max_WaldScenario: T12C12; Max_WaldRatio: 1.32638888889; Min_WaldScenario: C12C0; Min_WaldRatio: −7.46666666667" role="graphics-symbol" aria-roledescription="point" transform="translate(107.93055555555506,190)" d="M4.472,0A4.472,4.472,0,1,1,-4.472,0A4.472,4.472,0,1,1,4.472,0" fill="red" stroke-width="2" opacity="0.7"/><path aria-label="DBP_scenariorange: 26.3789473684; Author_pmid: Schiavon_29133606; PMID: 29133606; Max_WaldScenario: T12C12; Max_WaldRatio: 0.378947368421; Min_WaldScenario: C12C0; Min_WaldRatio: −26" role="graphics-symbol" aria-roledescription="point" transform="translate(283.7894736842063,150)" d="M4.472,0A4.472,4.472,0,1,1,-4.472,0A4.472,4.472,0,1,1,4.472,0" fill="red" stroke-width="2" opacity="0.7"/><path aria-label="DBP_scenariorange: 0.51690821256; Author_pmid: Simonson_31931977; PMID: 31931977; Max_WaldScenario: C12C0; Max_WaldRatio: 0.777777777778; Min_WaldScenario: T12T0; Min_WaldRatio: 0.260869565217" role="graphics-symbol" aria-roledescription="point" transform="translate(25.16908212560383,170)" d="M4.472,0A4.472,4.472,0,1,1,-4.472,0A4.472,4.472,0,1,1,4.472,0" fill="red" stroke-width="2" opacity="0.7"/><path aria-label="DBP_scenariorange: 3.33620689655; Author_pmid: Wallenius_32540150; PMID: 32540150; Max_WaldScenario: T12C12; Max_WaldRatio: 3.08620689655; Min_WaldScenario: C12C0; Min_WaldRatio: −0.25" role="graphics-symbol" aria-roledescription="point" transform="translate(53.36206896551726,250)" d="M4.472,0A4.472,4.472,0,1,1,-4.472,0A4.472,4.472,0,1,1,4.472,0" fill="red" stroke-width="2" opacity="0.7"/><path aria-label="DBP_scenariorange: 2.42857142857; Author_pmid: Caiazzo_32889869; PMID: 32889869; Max_WaldScenario: C12C0; Max_WaldRatio: 4.42857142857; Min_WaldScenario: T12C12; Min_WaldRatio: 2" role="graphics-symbol" aria-roledescription="point" transform="translate(44.28571428571474,10)" d="M4.472,0A4.472,4.472,0,1,1,-4.472,0A4.472,4.472,0,1,1,4.472,0" fill="red" stroke-width="2" opacity="0.7"/><path aria-label="DBP_scenariorange: 1.81993456415; Author_pmid: Ospanov_33963974_a; PMID: 33963974; Max_WaldScenario: T12C12; Max_WaldRatio: 2.95629820051; Min_WaldScenario: T12T0; Min_WaldRatio: 1.13636363636" role="graphics-symbol" aria-roledescription="point" transform="translate(38.19934564150502,130)" d="M4.472,0A4.472,4.472,0,1,1,-4.472,0A4.472,4.472,0,1,1,4.472,0" fill="red" stroke-width="2" opacity="0.7"/><path aria-label="DBP_scenariorange: 0.589642513435; Author_pmid: Eskandaros_34981324; PMID: 34981324; Max_WaldScenario: C12C0; Max_WaldRatio: 1.69377177735; Min_WaldScenario: T12C12; Min_WaldRatio: 1.10412926391" role="graphics-symbol" aria-roledescription="point" transform="translate(25.89642513435353,50)" d="M4.472,0A4.472,4.472,0,1,1,-4.472,0A4.472,4.472,0,1,1,4.472,0" fill="red" stroke-width="2" opacity="0.7"/></g><g class="mark-group role-title"><g transform="translate(150,-29)"><path class="background" aria-hidden="true" d="M0,0h0v0h0Z" pointer-events="none"/><g><g class="mark-text role-title-text" role="graphics-symbol" aria-roledescription="title" aria-label="Title text 'A plot showing how far the range between max and min scenario is from zero'" pointer-events="none"><text text-anchor="middle" transform="translate(0,17)" font-family="sans-serif" font-size="22px" font-weight="bold" fill="#000" opacity="1">A plot showing how far the range between max and min scenario is from zero</text></g></g><path class="foreground" aria-hidden="true" d="" pointer-events="none" display="none"/></g></g></g><path class="foreground" aria-hidden="true" d="" display="none"/></g></g></g></svg>